<svg xmlns="http://www.w3.org/2000/svg" xmlns:xlink="http://www.w3.org/1999/xlink" width="500" zoomAndPan="magnify" viewBox="0 0 375 374.999991" height="500" preserveAspectRatio="xMidYMid meet" version="1.0"><defs><clipPath id="c03d5406c9"><path d="M 25.730469 87.050781 L 348.980469 87.050781 L 348.980469 298.550781 L 25.730469 298.550781 Z M 25.730469 87.050781 " clip-rule="nonzero"/></clipPath></defs><g clip-path="url(#c03d5406c9)"><path fill="#ff914d" d="M 187.5 169.191406 L 237.878906 149.839844 L 187.5 130.226562 L 137.121094 149.835938 Z M 245.933594 234.171875 L 245.933594 211.097656 L 86.769531 149.949219 L 187.5 110.734375 L 288.234375 149.949219 L 209.371094 180.246094 L 240.121094 192.0625 L 349.382812 150.085938 L 187.5 87.066406 L 25.621094 150.085938 L 215.183594 222.914062 L 187.5 233.546875 L 88.84375 195.640625 L 88.84375 260.296875 L 187.5 298.199219 L 286.164062 260.296875 L 286.164062 195.640625 L 260.71875 205.417969 L 260.71875 231.5625 L 254.695312 228.941406 Z M 245.933594 234.171875 " fill-opacity="1" fill-rule="evenodd"/></g></svg>